<?xml version="1.0" encoding="UTF-8"?>
<svg id="Calque_1" data-name="Calque 1" xmlns="http://www.w3.org/2000/svg" xmlns:xlink="http://www.w3.org/1999/xlink" viewBox="0 0 800 800">
  <defs>
    <style>
      .cls-1 {
        fill: url(#Dégradé_sans_nom_3-3);
      }

      .cls-2 {
        fill: url(#Dégradé_sans_nom_3-2);
      }

      .cls-3 {
        fill: url(#Dégradé_sans_nom_3);
      }
    </style>
    <linearGradient id="Dégradé_sans_nom_3" data-name="Dégradé sans nom 3" x1="311.662" y1="492.588" x2="614.8449" y2="492.588" gradientUnits="userSpaceOnUse">
      <stop offset="0" stop-color="#f29f04"/>
      <stop offset="1" stop-color="#f25c05"/>
    </linearGradient>
    <linearGradient id="Dégradé_sans_nom_3-2" data-name="Dégradé sans nom 3" x1="342.0379" y1="400.0003" x2="458.0043" y2="400.0003" xlink:href="#Dégradé_sans_nom_3"/>
    <linearGradient id="Dégradé_sans_nom_3-3" data-name="Dégradé sans nom 3" x1="185.1551" y1="307.3616" x2="488.5614" y2="307.3616" xlink:href="#Dégradé_sans_nom_3"/>
  </defs>
  <path class="cls-3" d="M614.8449,418.8719c0,16.6958-7.9943,33.898-21.9572,47.1537l-111.4115,105.9451c-23.0689,21.8565-51.0984,36.2252-79.0266,40.4755-5.4646.8091-10.9292,1.2142-16.2925,1.2142-24.7908,0-46.8493-8.9047-62.2302-25.0953l-4.3529-4.553c-5.2595-5.5659-8.1944-13.155-7.8906-20.9462.2026-7.5892,3.3376-14.4699,8.7009-19.5294,5.262-4.7562,12.0409-7.3872,19.0248-7.3872h.8078c7.4903.2026,14.4718,3.2381,19.6325,8.7027l4.7556,5.0594c6.7789,7.0827,19.2249,9.3092,33.8968,6.0711,15.2796-3.3394,31.0657-12.1428,44.322-24.6901l108.6767-103.4147-32.6838.3032c-9.815.1013-18.3158-4.5536-23.5778-12.5473-5.262-7.9937-6.0698-18.0119-1.922-27.3211,4.3504-9.7144,14.2667-16.19,25.0946-16.2913l48.3686-.5058h.6077c19.9339,0,36.7304,10.928,43.8131,28.5353,2.4284,5.8685,3.6439,12.2435,3.6439,18.821Z"/>
  <path class="cls-2" d="M458.0021,401.4671c-.1013,4.8575-3.7452,9.2085-10.6253,12.4466-16.3913,7.8924-28.9411,25.9043-33.798,48.1654-5.1583,23.881-11.028,27.0179-15.7836,27.0179h-.1013c-4.5555-.1013-10.4227-3.4407-14.4718-27.8269-3.6414-22.4642-15.2771-41.0826-31.2658-49.7854-6.5788-3.5414-10.0176-8.095-9.9163-12.9519.1013-4.9582,3.7427-9.2079,10.524-12.446,16.3913-7.893,29.0399-25.9043,33.7955-48.166,5.1607-23.7798,11.0305-27.0173,15.6848-27.0173h.2026c4.6543.1007,10.524,3.3388,14.4693,27.8269,3.6439,22.4636,15.3809,40.9814,31.3695,49.7847,6.5763,3.5414,10.0176,7.9937,9.9163,12.9519Z"/>
  <path class="cls-1" d="M488.5614,235.7197c0,7.4885-2.9349,14.8751-8.7033,20.3391-5.3633,5.1607-12.6486,7.7917-20.0352,7.7917-7.4879-.2026-14.4693-3.3394-19.63-8.8034l-4.8569-4.9582c-6.6776-7.0833-18.5184-9.4105-32.5825-6.4762-15.4822,3.1368-32.0785,12.2441-45.535,25.0946l-108.778,103.4153,33.089-.4052c9.4099,0,18.1132,4.7562,23.1726,12.5479,5.3608,8.095,6.1711,18.1126,2.0233,27.3205-4.4542,9.8156-14.2692,16.1906-25.0971,16.2919l-48.9738.5058c-19.9339,0-36.7304-10.8273-43.9169-28.434-8.5996-21.3513-1.4156-47.2556,18.3158-65.9753l111.409-105.9444c23.0714-21.9584,51.1009-36.3271,79.0291-40.4755,5.5634-.8097,11.028-1.2148,16.29-1.2148,24.6895,0,46.8517,8.7027,62.2326,24.994l4.8569,5.0594c5.1607,5.464,7.6905,12.446,7.6905,19.3268Z"/>
</svg>